<?xml version="1.0" encoding="UTF-8" standalone="no"?>
<svg width="250px" height="38px" viewBox="0 0 250 38" version="1.1" xmlns="http://www.w3.org/2000/svg" xmlns:xlink="http://www.w3.org/1999/xlink">
    <!-- Generator: sketchtool 41.2 (35397) - http://www.bohemiancoding.com/sketch -->
    <title>10316083-C998-4A84-9970-FB16C73A2FD5</title>
    <desc>Created with sketchtool.</desc>
    <defs></defs>
    <g id="Symbols" stroke="none" stroke-width="1" fill="none" fill-rule="evenodd">
        <g id="header" transform="translate(-476.000000, -1.000000)" fill="#757674">
            <g id="yargici-logo">
                <g transform="translate(476.000000, 1.000000)">
                    <path d="M14.1797826,18.5715761 L19.0993478,7.05853261 C19.308587,6.60581522 19.4732609,6.21342391 19.595,5.88081522 C19.7172826,5.55038043 19.7792391,5.26288043 19.7792391,5.0188587 C19.7792391,4.66940217 19.6308696,4.42538043 19.333587,4.28570652 C19.0373913,4.14603261 18.5748913,4.02375 17.9471739,3.91940217 C17.8075,3.91940217 17.6678261,3.91016304 17.5286957,3.89277174 C17.3890217,3.87538043 17.2325,3.84983696 17.0575,3.81451087 L17.0575,2.50581522 L25.6922826,2.50581522 L25.6922826,3.76233696 L22.395,3.76233696 L15.0172826,20.6650543 L15.0172826,32.5960326 C15.0172826,33.7128804 15.3042391,34.410163 15.8797826,34.6895109 C16.4553261,34.9683152 17.0748913,35.1074457 17.7373913,35.1074457 L17.8172826,35.1074457 L17.895,35.1074457 L18.5227174,35.1074457 L19.0993478,35.1074457 L19.0993478,36.31125 L8.00478261,36.31125 L8.00478261,35.0558152 L11.72,35.0558152 L11.72,20.6650543 L4.28956522,6.64059783 C4.21945652,6.50038043 4.12380435,6.32646739 4.00097826,6.11668478 C3.87923913,5.90744565 3.71402174,5.68190217 3.50423913,5.43679348 C3.1901087,5.08788043 2.77217391,4.7661413 2.24771739,4.4688587 C1.72543478,4.17157609 1.045,3.95418478 0.208043478,3.81451087 L0.154782609,2.50581522 L9.62706522,2.50581522 L9.62706522,3.76233696 L6.32978261,3.76233696 L14.1797826,18.5715761 Z" id="Fill-1"></path>
                    <path d="M54.6577717,35.0555978 L48.4827717,14.4903804 L44.3479891,14.4903804 L40.6327717,30.9740761 C40.5985326,31.2534239 40.5632065,31.5061413 40.5278804,31.7327717 C40.4936413,31.9594022 40.4757065,32.1778804 40.4757065,32.3871196 C40.4757065,33.6077717 40.7990761,34.3664674 41.4436413,34.66375 C42.0892935,34.9594022 42.8132065,35.1077717 43.6153804,35.1077717 L43.9566848,35.1077717 L44.2963587,35.1077717 L44.5316848,35.1077717 L44.7675543,35.1077717 L44.7675543,36.3115761 L36.1327717,36.3115761 L36.1327717,35.0555978 L37.7550543,35.0555978 L46.0229891,0.465923913 L47.227337,0.465923913 L56.7507065,32.1778804 C57.0642935,33.5028804 57.4479891,34.3229891 57.9017935,34.6371196 C58.3555978,34.95125 58.8610326,35.1077717 59.4197283,35.1077717 L59.9170109,35.1077717 L60.41375,35.1077717 L60.41375,36.3115761 L52.1979891,36.3115761 L52.1979891,35.0555978 L54.6577717,35.0555978 Z M48.06375,13.2338587 L46.4409239,7.47842391 L44.7675543,13.2338587 L48.06375,13.2338587 Z" id="Fill-3"></path>
                    <path d="M74.4644565,2.08788043 L80.6394565,2.08788043 L80.6394565,5.38461957 C82.5932609,4.0938587 84.476413,3.16125 86.291087,2.58570652 C88.1052174,2.00907609 89.7965217,1.70418478 91.3671739,1.6688587 C95.413913,1.6688587 98.6492391,3.15201087 101.074239,6.11668478 C103.498696,9.08244565 104.780761,12.3617935 104.920435,15.9558152 L104.920435,16.2177717 L104.920435,16.5308152 C104.955761,19.8107065 103.865,22.8536413 101.649783,25.662337 C99.4340217,28.4710326 95.8666304,30.1188587 90.9481522,30.6074457 C91.6111957,30.8520109 92.2997826,31.1569022 93.0155435,31.5232065 C93.7302174,31.8889674 94.4715217,32.2650543 95.2394565,32.6482065 C96.565,33.31125 97.9601087,33.9221196 99.426413,34.4802717 C100.891087,35.0384239 102.408478,35.3177717 103.978043,35.3177717 C104.361739,35.3177717 104.736739,35.299837 105.103587,35.2645109 C105.469891,35.2308152 105.8275,35.1775543 106.176957,35.1074457 L107.01337,35.8938587 C106.350326,36.2775543 105.644348,36.5563587 104.894348,36.7308152 C104.144348,36.9036413 103.367717,36.9916848 102.566087,36.9916848 C101.309565,36.9916848 100.001957,36.8346196 98.6405435,36.5204891 C97.2802174,36.2069022 95.9019565,35.7889674 94.5068478,35.2645109 C93.39,34.8465761 92.2736957,34.3835326 91.1573913,33.8780978 C90.0416304,33.3732065 88.9595652,32.8400543 87.9133696,32.2824457 C86.5177174,31.5835326 85.1921739,30.8954891 83.9356522,30.2150543 C82.6796739,29.5340761 81.5813043,28.9677717 80.6394565,28.5145109 L80.6394565,32.5960326 C80.6394565,33.7471196 80.9090217,34.4536413 81.4503261,34.7161413 C81.9916304,34.9770109 82.6976087,35.1074457 83.5698913,35.1074457 L84.3813043,35.1074457 L85.1921739,35.1074457 L85.1921739,36.31125 L75.3019565,36.31125 L75.3019565,35.0558152 L77.7606522,35.0558152 L77.7606522,9.10038043 L77.7606522,8.75961957 L77.7606522,8.36777174 C77.7959783,7.07701087 77.6742391,5.92483696 77.3954348,4.91451087 C77.116087,3.90201087 76.138913,3.39657609 74.4644565,3.39657609 L74.4644565,2.08788043 Z M80.6394565,7.47809783 L80.6394565,24.7992935 C82.5932609,26.4384239 84.4421739,27.6074457 86.1856522,28.3058152 C87.9307609,29.0020109 89.5530435,29.3514674 91.0525,29.3514674 C93.6693478,29.3514674 95.876413,28.5405978 97.6731522,26.9188587 C99.4688043,25.2965761 100.768804,23.5079891 101.570435,21.5547283 C101.885109,20.8569022 102.120435,20.1585326 102.2775,19.4617935 C102.434565,18.7634239 102.512826,18.1009239 102.512826,17.4732065 L102.512826,17.2639674 L102.512826,17.0020109 C102.512826,16.9313587 102.50413,16.862337 102.487283,16.7933152 C102.469348,16.722663 102.460652,16.6525543 102.460652,16.5829891 C102.460652,12.2221196 101.161739,9.02157609 98.5622826,6.98081522 C95.963913,4.94005435 93.1111957,3.91940217 90.0063043,3.91940217 C88.2617391,3.91940217 86.5617391,4.22483696 84.903587,4.83516304 C83.2470652,5.44603261 81.8253261,6.34440217 80.6394565,7.52972826 L80.6394565,7.47809783 Z" id="Fill-5"></path>
                    <path d="M149.096685,3.34358696 L149.096685,0.883804348 L150.352663,0.883804348 L150.352663,13.2338043 L149.096685,13.2338043 C149.096685,9.71043478 148.27712,7.2251087 146.637446,5.77673913 C144.998315,4.32891304 143.201033,3.44793478 141.247772,3.13434783 C140.82875,3.09956522 140.410272,3.06423913 139.99125,3.03 C139.572772,2.99467391 139.171685,2.97728261 138.787989,2.97728261 C134.252663,2.97728261 130.781467,4.65228261 128.374402,8.00065217 C125.966793,11.3501087 124.764076,15.0653261 124.764076,19.1473913 L124.764076,19.3305435 L124.764076,19.5136957 C124.798315,23.3158696 125.958641,26.8577174 128.243424,30.1359783 C130.528207,33.416413 134.043424,35.3517391 138.787989,35.9446739 C138.89288,35.9446739 138.996685,35.9544565 139.101033,35.9718478 C139.207011,35.9881522 139.311359,35.9979348 139.41625,35.9979348 L139.677663,35.9979348 L139.99125,35.9979348 C141.875489,35.9979348 143.576576,35.718587 145.093967,35.1598913 C146.610815,34.6017391 147.771685,33.9919565 148.573859,33.328913 C148.783098,33.1544565 148.974402,32.9713043 149.149402,32.78 C149.323859,32.5876087 149.446141,32.403913 149.515707,32.23 L149.515707,28.4620652 C149.515707,27.4848913 149.053207,26.9093478 148.128207,26.7348913 C147.204293,26.5604348 146.02712,26.4734783 144.596685,26.4734783 L144.596685,25.1658696 L155.690707,25.1658696 L155.690707,26.4213043 L152.393424,26.4213043 L152.393424,29.2990217 C152.42875,29.543587 152.472228,29.7441304 152.524946,29.9011957 C152.576576,30.0582609 152.620054,30.1892391 152.65538,30.293587 C152.795054,30.5370652 152.908641,30.7033696 152.995598,30.7903261 C153.083098,30.8783696 153.143424,30.9392391 153.17875,30.9740217 C153.17875,31.0082609 153.15212,31.0609783 153.099946,31.131087 C153.047772,31.2001087 152.95212,31.3055435 152.812446,31.4457609 C152.603207,31.7588043 152.34125,32.0908696 152.02712,32.4381522 C151.712989,32.7881522 151.329293,33.1376087 150.875489,33.4859783 C149.620598,34.4973913 147.946141,35.431087 145.851576,36.2848913 C143.759185,37.1392391 141.404293,37.5669565 138.787989,37.5669565 C132.892337,37.3577174 128.513533,35.5175 125.652663,32.0473913 C122.792337,28.5751087 121.361902,24.7115217 121.361902,20.4555435 L121.361902,19.9327174 C121.361902,19.7577174 121.379293,19.5832609 121.414076,19.4088043 C121.624402,14.9430435 123.350489,10.8441304 126.595054,7.11206522 C129.839076,3.37836957 134.461902,1.45934783 140.462446,1.355 C141.090707,1.355 142.18038,1.4425 143.733098,1.61695652 C145.285815,1.79195652 147.072772,2.38434783 149.096685,3.39630435 L149.096685,3.34358696 Z" id="Fill-7"></path>
                    <path d="M170.126739,35.0555978 L173.05663,35.0555978 L173.05663,6.64092391 C173.05663,5.45396739 172.760435,4.68657609 172.1675,4.33766304 C171.574022,3.98929348 170.771848,3.81483696 169.759891,3.81483696 L169.759891,2.50559783 L179.23163,2.50559783 L179.23163,3.76211957 L175.935435,3.76211957 L175.935435,32.1778804 C175.935435,33.5028804 176.126739,34.3229891 176.510435,34.6371196 C176.89413,34.95125 177.4175,35.1077717 178.080543,35.1077717 L178.63,35.1077717 L179.23163,35.1077717 L179.23163,36.3115761 L170.126739,36.3115761 L170.126739,35.0555978 Z" id="Fill-9"></path>
                    <path d="M222.930109,3.34358696 L222.930109,0.465869565 L224.18663,0.465869565 L224.18663,13.6533696 L222.930109,13.6533696 C222.964891,13.4783696 222.982283,13.2865217 222.982283,13.0778261 L222.982283,12.5022826 C222.982283,9.8501087 222.415435,7.84413043 221.282283,6.48326087 C220.148587,5.12293478 218.900761,4.14576087 217.540435,3.55282609 C216.354022,3.06423913 215.237717,2.77728261 214.190978,2.69032609 C213.144239,2.60282609 212.481196,2.55934783 212.202391,2.55934783 C207.144239,2.8723913 203.437717,4.64304348 201.082283,7.87021739 C198.727935,11.0968478 197.532826,14.6816304 197.498043,18.6240217 L197.498043,19.0169565 L197.498043,19.3566304 C197.671957,23.4734783 199.024674,27.2408696 201.553478,30.6604348 C204.082283,34.078913 207.632283,35.8397826 212.202391,35.9446739 C212.376848,35.9805435 212.560543,35.9979348 212.751848,35.9979348 L213.301848,35.9979348 C215.604022,35.9979348 217.662174,35.5702174 219.476848,34.7158696 C221.290435,33.8615217 222.72087,32.9093478 223.767609,31.8626087 C223.907283,31.7240217 224.046957,31.5832609 224.18663,31.4457609 C224.325761,31.3055435 224.4475,31.1658696 224.552935,31.0261957 L225.389348,32.1778261 C224.866522,33.2582609 223.854565,34.2180435 222.354022,35.0555435 C220.855109,35.893587 219.250217,36.5202174 217.540435,36.9397826 C216.773043,37.1490217 216.005109,37.3142391 215.237717,37.4365217 C214.470326,37.5588043 213.754565,37.6202174 213.092065,37.6202174 L212.856739,37.6202174 L212.62087,37.6202174 C212.551304,37.5848913 212.481196,37.5669565 212.41163,37.5669565 L212.202391,37.5669565 C206.44587,37.1490217 202.076848,35.1077174 199.093696,31.4457609 C196.111087,27.781087 194.602391,23.7691304 194.567065,19.4088043 L194.567065,19.3305435 L194.567065,19.2517391 C194.532826,14.8919565 196.032826,10.8876087 199.068152,7.2425 C202.103478,3.59630435 206.760543,1.63380435 213.039891,1.355 C213.598043,1.355 214.705652,1.41586957 216.362717,1.53815217 C218.020326,1.66043478 219.790435,2.0876087 221.67413,2.82021739 C221.88337,2.9251087 222.093152,3.02076087 222.302391,3.10771739 C222.511087,3.19521739 222.72087,3.29195652 222.930109,3.39630435 L222.930109,3.34358696 Z" id="Fill-11"></path>
                    <path d="M240.727446,35.0555978 L243.657337,35.0555978 L243.657337,6.64092391 C243.657337,5.45396739 243.361141,4.68657609 242.768207,4.33766304 C242.174728,3.98929348 241.372554,3.81483696 240.360598,3.81483696 L240.360598,2.50559783 L249.832337,2.50559783 L249.832337,3.76211957 L246.535598,3.76211957 L246.535598,32.1778804 C246.535598,33.5028804 246.727446,34.3229891 247.111141,34.6371196 C247.494837,34.95125 248.018207,35.1077717 248.68125,35.1077717 L249.230707,35.1077717 L249.832337,35.1077717 L249.832337,36.3115761 L240.727446,36.3115761 L240.727446,35.0555978 Z" id="Fill-13"></path>
                </g>
            </g>
        </g>
    </g>
</svg>