<svg width="254" height="66" viewBox="0 0 254 66" xmlns="http://www.w3.org/2000/svg"><title>FB5F10BD-1331-4DF7-AC3C-12ACCD99608C</title><g fill="#757674" fill-rule="evenodd"><path d="M149.486 27.444a.997.997 0 0 1 1.002.991c0 .548-.449.99-1.002.99h-10.444l-.012 4.963a.996.996 0 0 1-1.002.99h-.002a.996.996 0 0 1-1-.994l.013-4.959h-21.252l-.01 4.963a.997.997 0 0 1-1.003.99h-.002a.996.996 0 0 1-1-.994l.012-4.959H103.19a.996.996 0 0 1-1.002-.99.997.997 0 0 1 1.002-.991h10.597l.038-15.626-10.983-9.052a.982.982 0 0 1-.13-1.395c.354-.42.987-.479 1.412-.127l10.687 8.807L125.79.621c.021-.018.048-.022.07-.039a.926.926 0 0 1 .242-.136c.033-.013.067-.018.103-.028a.979.979 0 0 1 .272-.032c.037 0 .07.007.105.011.09.013.176.034.26.07.04.016.074.04.11.062.05.029.106.045.15.083l10.993 9.438 10.677-8.806a1.01 1.01 0 0 1 1.411.126.983.983 0 0 1-.128 1.396l-10.967 9.046-.033 15.632h10.432zm-33.686 0h21.243l.038-15.638-10.632-9.128-10.617 9.122-.032 15.644zM9.811 54.057l-3.962 4.347-3.982-4.347H.134l5.013 5.49v5.51H6.53v-5.49l5.035-5.51zM20.518 54.057l-5.447 11h1.488l1.464-2.96h6.149l1.506 2.96h1.505l-5.509-11h-1.156zm.578 1.877l2.455 4.877h-4.889l2.434-4.877zM33.353 54.057h6.375c1.102 0 1.96.268 2.57.805.612.538.92 1.29.92 2.256a3.079 3.079 0 0 1-1.537 2.714c-.325.19-.693.32-1.106.388l2.786 4.838h-1.527L39.05 60.24h-4.312v4.818h-1.384V54.057zm6.293 4.898c1.417 0 2.127-.598 2.127-1.796 0-.573-.175-1.02-.526-1.346-.352-.328-.865-.49-1.539-.49h-4.971v3.632h4.91zM58.794 60.465h-3.033v-1.266h4.416v3.307c-.537.925-1.235 1.63-2.095 2.113-.86.48-1.839.724-2.94.724a6.093 6.093 0 0 1-2.3-.429 5.376 5.376 0 0 1-1.826-1.194 5.516 5.516 0 0 1-1.198-1.815c-.288-.701-.432-1.474-.432-2.318 0-.83.144-1.599.432-2.307a5.639 5.639 0 0 1 1.198-1.836 5.338 5.338 0 0 1 1.826-1.204 6.086 6.086 0 0 1 2.3-.43c1.033 0 1.97.225 2.818.675a5.424 5.424 0 0 1 2.051 1.899l-1.154.816a3.805 3.805 0 0 0-1.517-1.552c-.653-.367-1.386-.552-2.198-.552a4.41 4.41 0 0 0-1.723.337c-.53.225-.988.536-1.372.929-.384.395-.688.87-.908 1.419a4.81 4.81 0 0 0-.33 1.806c0 .653.109 1.253.33 1.796.22.545.524 1.018.908 1.42.384.401.843.71 1.372.928a4.504 4.504 0 0 0 1.723.326c1.555 0 2.772-.659 3.652-1.979v-1.613zM67.585 65.099h1.401V53.995h-1.401zM86.856 62.363c-.523.967-1.224 1.704-2.105 2.214-.88.51-1.885.766-3.013.766-.825 0-1.59-.143-2.3-.429a5.398 5.398 0 0 1-1.826-1.193 5.515 5.515 0 0 1-1.197-1.817c-.289-.7-.433-1.472-.433-2.316 0-.831.144-1.6.433-2.308.29-.707.689-1.319 1.197-1.836a5.307 5.307 0 0 1 1.827-1.205 6.103 6.103 0 0 1 2.299-.428c1.033 0 1.972.224 2.818.674a5.408 5.408 0 0 1 2.051 1.898l-1.155.816a3.806 3.806 0 0 0-1.516-1.551c-.654-.368-1.386-.551-2.198-.551-.618 0-1.193.112-1.722.337a4.166 4.166 0 0 0-1.372.928c-.385.395-.69.868-.91 1.418a4.84 4.84 0 0 0-.328 1.808c0 .653.109 1.251.329 1.795.22.546.524 1.019.91 1.418.383.403.842.712 1.37.929.53.218 1.105.328 1.723.328.866 0 1.642-.212 2.323-.634.68-.422 1.24-1.048 1.68-1.878l1.115.817zM93.892 65.099h1.402V53.995h-1.402zM111.14 54.057v4.347h-6.56v-4.347h-1.404v11h1.403v-5.388h6.562v5.388h1.384v-11zM125.294 65.343a6.095 6.095 0 0 1-2.3-.429 5.363 5.363 0 0 1-1.826-1.194 5.495 5.495 0 0 1-1.196-1.815c-.289-.7-.434-1.474-.434-2.318 0-.83.145-1.599.434-2.307a5.617 5.617 0 0 1 1.196-1.836 5.309 5.309 0 0 1 1.826-1.204 6.087 6.087 0 0 1 2.3-.43 6.08 6.08 0 0 1 2.3.43 5.42 5.42 0 0 1 1.837 1.204c.516.518.919 1.13 1.208 1.836.289.708.432 1.478.432 2.307 0 .844-.143 1.617-.432 2.318a5.435 5.435 0 0 1-1.208 1.815 5.478 5.478 0 0 1-1.836 1.194 6.088 6.088 0 0 1-2.301.429m0-1.285c.62 0 1.193-.113 1.723-.338a4.132 4.132 0 0 0 1.372-.928c.386-.394.688-.864.908-1.409a4.724 4.724 0 0 0 .331-1.796 4.81 4.81 0 0 0-.331-1.806 4.265 4.265 0 0 0-.908-1.419 4.174 4.174 0 0 0-1.372-.929 4.37 4.37 0 0 0-1.723-.337 4.39 4.39 0 0 0-1.723.337 4.194 4.194 0 0 0-1.371.929c-.385.395-.689.87-.91 1.42-.22.55-.329 1.153-.329 1.805 0 .653.11 1.253.33 1.796a4.42 4.42 0 0 0 .909 1.42c.384.4.842.71 1.371.927a4.484 4.484 0 0 0 1.723.328M148.279 54.057l-4.52 6.734-4.497-6.734h-1.28v11h1.362v-8.592l4.415 6.51 4.417-6.51v8.592h1.362v-11zM157.337 54.057v11h9.206V63.79h-7.821v-3.978h4.457v-1.266h-4.457v-3.224h7.365v-1.266zM185.131 54.057l-2.766 8.469-2.825-8.469h-1.24l-2.826 8.49-2.765-8.49h-1.362l3.632 11h1.01l2.911-8.858 2.93 8.858h1.01l3.612-11zM197.406 65.343a6.097 6.097 0 0 1-2.3-.429 5.37 5.37 0 0 1-1.825-1.194 5.516 5.516 0 0 1-1.197-1.815c-.29-.7-.434-1.474-.434-2.318 0-.83.144-1.599.434-2.307a5.639 5.639 0 0 1 1.197-1.836 5.315 5.315 0 0 1 1.824-1.204 6.089 6.089 0 0 1 2.301-.43c.826 0 1.593.144 2.301.43a5.42 5.42 0 0 1 1.836 1.204c.516.518.92 1.13 1.208 1.836.288.708.433 1.478.433 2.307 0 .844-.145 1.617-.433 2.318a5.435 5.435 0 0 1-1.208 1.815 5.478 5.478 0 0 1-1.836 1.194 6.092 6.092 0 0 1-2.3.429m0-1.285c.618 0 1.193-.113 1.722-.338a4.132 4.132 0 0 0 1.372-.928c.386-.394.689-.864.908-1.409.22-.543.33-1.143.33-1.796 0-.652-.11-1.255-.33-1.806a4.283 4.283 0 0 0-.908-1.419 4.174 4.174 0 0 0-1.372-.929 4.373 4.373 0 0 0-1.723-.337c-.618 0-1.192.113-1.723.337a4.199 4.199 0 0 0-1.372.929c-.384.395-.688.87-.908 1.42-.22.55-.33 1.153-.33 1.805 0 .653.11 1.253.33 1.796.22.545.524 1.018.908 1.42.385.4.844.71 1.372.927.53.218 1.105.328 1.723.328M210.096 54.057h6.375c1.101 0 1.958.268 2.57.805.612.538.92 1.29.92 2.256a3.079 3.079 0 0 1-1.537 2.714c-.325.19-.693.32-1.106.388l2.786 4.838h-1.527l-2.785-4.818h-4.313v4.818h-1.383V54.057zm6.293 4.898c1.417 0 2.126-.598 2.126-1.796 0-.573-.174-1.02-.525-1.346-.352-.328-.865-.49-1.539-.49h-4.972v3.632h4.91zM234.774 54.035l-6.375 5.49v-5.49h-1.383v11.022h1.383v-3.918l2.701-2.246 4.5 6.164h1.669l-5.177-7.103 4.498-3.919zM243.399 62.22a9.458 9.458 0 0 0 2.465 1.39 7.223 7.223 0 0 0 2.506.468c.538 0 1.019-.059 1.444-.173.428-.117.788-.28 1.086-.491a2.4 2.4 0 0 0 .69-.736c.165-.276.249-.58.249-.906 0-.504-.217-.94-.651-1.308-.433-.366-1.084-.585-1.95-.652-.481-.042-.933-.075-1.35-.1-.42-.03-.823-.063-1.209-.104a9.182 9.182 0 0 1-1.082-.174 4.445 4.445 0 0 1-.941-.316c-1.058-.504-1.588-1.257-1.588-2.266 0-.422.1-.815.299-1.182.2-.369.489-.692.868-.97.377-.28.831-.497 1.362-.653a6.256 6.256 0 0 1 1.782-.236c.951 0 1.871.153 2.766.46a9.758 9.758 0 0 1 2.56 1.337l-.805 1.143c-1.39-1.103-2.89-1.654-4.498-1.654-.881 0-1.582.167-2.106.5-.523.333-.784.732-.784 1.193 0 .382.18.708.538.98.233.178.508.308.824.39.316.08.668.142 1.052.182.385.042.805.072 1.26.093.453.02.935.057 1.444.111 1.169.136 2.074.504 2.714 1.103.64.598.959 1.318.959 2.162 0 .478-.112.929-.33 1.358-.221.429-.537.804-.95 1.123-.413.32-.925.574-1.537.766-.613.19-1.31.285-2.094.285a9.735 9.735 0 0 1-3.075-.47 9.157 9.157 0 0 1-2.722-1.468l.804-1.185z"/></g></svg>